<?xml version="1.0" encoding="UTF-8" standalone="no"?>
<!DOCTYPE svg PUBLIC "-//W3C//DTD SVG 20010904//EN"
              "http://www.w3.org/TR/2001/REC-SVG-20010904/DTD/svg10.dtd">

<svg xmlns="http://www.w3.org/2000/svg"
     width="4.22222in" height="1.63889in"
     viewBox="0 0 304 118">
	 <filter id="shadowBlur">
		<feGaussianBlur in="Stroke" stdDeviation="2" />
		<feOffset dx="1" dy="3" />
		<feMerge>
		  <feMergeNode />
		  <feMergeNode in="SourceGraphic" />
		</feMerge>
	 </filter>
  <path id="Ga-mer"
        fill="#e86a9c" stroke="#e8b56a" filter="url(#shadowBlur)" stroke-width="3"
        d="M 63.06,63.00
           C 63.06,63.00 70.28,63.00 70.28,63.00
             74.81,63.00 77.08,64.51 77.08,67.52
             77.08,69.54 76.28,71.12 74.69,72.28
             73.09,73.43 70.88,74.00 68.05,74.00
             68.05,74.00 58.28,74.00 58.28,74.00
             58.28,74.00 54.67,82.95 54.67,82.95
             50.73,92.85 46.61,99.83 42.31,103.89
             38.01,107.96 32.66,110.00 26.25,110.00
             20.19,110.00 15.13,108.02 11.08,104.06
             7.02,100.11 5.00,95.18 5.00,89.27
             5.00,79.91 9.55,72.71 18.67,67.66
             24.24,64.62 31.89,63.09 41.62,63.09
             41.62,63.09 49.39,63.00 49.39,63.00
             49.39,63.00 51.05,58.59 51.05,58.59
             48.58,59.53 46.05,60.00 43.48,60.00
             38.50,60.00 34.48,58.17 31.42,54.50
             28.36,50.84 26.83,46.00 26.83,40.00
             26.83,40.00 18.83,40.00 18.83,40.00
             15.18,40.00 13.36,38.54 13.36,35.62
             13.36,33.75 14.10,32.18 15.58,30.91
             17.05,29.64 18.88,29.00 21.06,29.00
             21.06,29.00 29.42,29.00 29.42,29.00
             32.97,21.81 37.46,16.18 42.88,12.11
             48.29,8.04 54.01,6.00 60.03,6.00
             65.01,6.00 69.07,7.45 72.20,10.36
             75.35,13.27 76.92,17.01 76.92,21.59
             76.92,28.05 74.01,33.03 68.19,36.52
             64.31,38.84 58.48,40.00 50.70,40.00
             50.70,40.00 39.58,40.00 39.58,40.00
             39.58,40.00 39.58,41.22 39.58,41.22
             39.58,46.41 42.02,49.00 46.91,49.00
             49.08,49.00 51.31,48.16 53.59,46.48
             53.59,46.48 56.17,44.52 56.17,44.52
             58.42,42.84 60.34,42.00 61.94,42.00
             63.73,42.00 65.21,42.57 66.38,43.70
             67.55,44.84 68.14,46.30 68.14,48.09
             68.14,49.19 67.69,50.92 66.78,53.30
             66.78,53.30 63.06,63.00 63.06,63.00 Z
           M 44.66,74.00
           C 37.78,74.00 32.52,74.66 28.88,75.97
             25.49,77.19 22.82,78.94 20.86,81.23
             18.91,83.52 17.94,86.05 17.94,88.81
             17.94,91.38 18.77,93.55 20.45,95.33
             22.13,97.11 24.19,98.00 26.62,98.00
             29.59,98.00 32.27,96.66 34.66,94.00
             37.05,91.33 39.44,87.02 41.83,81.06
             41.83,81.06 44.66,74.00 44.66,74.00 Z
           M 43.14,29.00
           C 43.14,29.00 52.61,29.00 52.61,29.00
             60.68,29.00 64.72,26.63 64.72,21.89
             64.72,20.50 64.19,19.34 63.12,18.41
             62.07,17.47 60.73,17.00 59.11,17.00
             56.60,17.00 53.91,18.07 51.06,20.22
             48.22,22.36 45.58,25.28 43.14,29.00 Z
           M 113.94,63.00
           C 113.94,63.00 119.31,63.00 119.31,63.00
             123.41,63.00 125.47,64.48 125.47,67.44
             125.47,69.49 124.73,71.10 123.27,72.27
             121.80,73.42 119.79,74.00 117.22,74.00
             117.22,74.00 110.97,74.00 110.97,74.00
             108.16,74.00 106.26,72.85 105.25,70.55
             102.81,72.85 100.45,74.00 98.17,74.00
             98.17,74.00 92.61,74.00 92.61,74.00
             89.02,74.00 86.13,72.76 83.94,70.28
             81.74,67.79 80.64,64.54 80.64,60.52
             80.64,54.43 82.80,49.00 87.11,44.20
             91.42,39.40 96.30,37.00 101.73,37.00
             105.90,37.00 108.94,38.20 110.86,40.58
             112.48,38.20 114.62,37.00 117.27,37.00
             118.69,37.00 119.88,37.45 120.84,38.33
             121.81,39.21 122.30,40.31 122.30,41.61
             122.30,42.50 122.04,43.56 121.52,44.80
             121.52,44.80 120.98,46.08 120.98,46.08
             120.98,46.08 113.94,63.00 113.94,63.00 Z
           M 96.22,63.00
           C 96.22,63.00 97.44,63.00 97.44,63.00
             100.10,63.00 101.88,61.96 102.77,59.88
             102.77,59.88 106.17,51.80 106.17,51.80
             106.63,50.73 106.86,49.84 106.86,49.12
             106.86,48.29 106.43,47.56 105.56,46.94
             104.70,46.31 103.66,46.00 102.47,46.00
             100.08,46.00 97.77,47.32 95.52,49.97
             93.27,52.62 92.16,55.36 92.16,58.19
             92.16,61.40 93.51,63.00 96.22,63.00 Z
           M 132.33,49.00
           C 132.33,49.00 141.27,49.00 141.27,49.00
             144.36,49.00 145.91,50.33 145.91,52.98
             145.91,55.66 144.36,57.00 141.27,57.00
             141.27,57.00 131.41,57.00 131.41,57.00
             130.04,57.00 128.93,56.64 128.06,55.91
             127.20,55.17 126.77,54.20 126.77,52.98
             126.77,51.80 127.19,50.84 128.03,50.11
             128.88,49.37 130.01,49.00 131.41,49.00
             131.41,49.00 132.33,49.00 132.33,49.00 Z
           M 205.33,63.00
           C 205.33,63.00 211.14,63.00 211.14,63.00
             215.24,63.00 217.30,64.50 217.30,67.48
             217.30,69.54 216.57,71.14 215.12,72.28
             213.68,73.43 211.66,74.00 209.09,74.00
             209.09,74.00 199.17,74.00 199.17,74.00
             197.02,74.00 195.29,73.46 193.95,72.39
             192.62,71.31 191.95,69.89 191.95,68.14
             191.95,66.95 192.39,65.32 193.27,63.27
             193.27,63.27 197.86,52.70 197.86,52.70
             198.12,52.09 198.25,51.52 198.25,51.00
             198.25,49.00 197.18,48.00 195.03,48.00
             193.36,48.00 191.72,48.70 190.09,50.08
             188.47,51.45 187.16,53.28 186.19,55.56
             186.19,55.56 180.72,67.97 180.72,67.97
             178.93,71.99 176.32,74.00 172.91,74.00
             171.57,74.00 170.43,73.60 169.48,72.80
             168.55,71.98 168.08,71.02 168.08,69.91
             168.08,69.04 168.32,68.02 168.81,66.84
             168.81,66.84 169.34,65.64 169.34,65.64
             169.34,65.64 174.86,53.08 174.86,53.08
             175.35,51.98 175.59,51.11 175.59,50.47
             175.59,49.81 175.27,49.24 174.61,48.75
             173.96,48.25 173.20,48.00 172.33,48.00
             168.80,48.00 166.02,50.34 163.97,55.02
             163.97,55.02 158.25,67.92 158.25,67.92
             156.47,71.98 153.88,74.00 150.50,74.00
             149.16,74.00 148.00,73.59 147.05,72.75
             146.09,71.91 145.61,70.88 145.61,69.67
             145.61,68.73 145.85,67.65 146.34,66.45
             146.34,66.45 146.88,65.17 146.88,65.17
             146.88,65.17 156.59,41.89 156.59,41.89
             157.97,38.63 160.02,37.00 162.75,37.00
             165.58,37.00 167.34,38.30 168.03,40.91
             170.25,39.34 172.05,38.29 173.42,37.78
             174.80,37.26 176.51,37.00 178.53,37.00
             182.89,37.00 186.16,38.63 188.34,41.89
             191.99,38.63 196.09,37.00 200.64,37.00
             203.77,37.00 206.38,37.86 208.47,39.58
             210.57,41.29 211.62,43.39 211.62,45.89
             211.62,47.48 211.27,49.10 210.55,50.77
             210.55,50.77 205.33,63.00 205.33,63.00 Z
           M 231.31,60.00
           C 231.31,62.00 233.15,63.00 236.83,63.00
             236.83,63.00 251.33,63.00 251.33,63.00
             255.43,63.00 257.48,64.50 257.48,67.48
             257.48,69.54 256.76,71.14 255.31,72.28
             253.86,73.43 251.84,74.00 249.23,74.00
             249.23,74.00 235.41,74.00 235.41,74.00
             230.26,74.00 226.34,72.77 223.66,70.30
             220.98,67.83 219.64,64.22 219.64,59.47
             219.64,53.36 221.76,48.09 226.00,43.66
             230.25,39.22 235.30,37.00 241.17,37.00
             245.43,37.00 248.85,38.09 251.44,40.25
             254.03,42.41 255.33,45.25 255.33,48.78
             255.33,53.04 253.54,56.20 249.95,58.25
             247.97,59.42 245.02,60.00 241.08,60.00
             241.08,60.00 231.31,60.00 231.31,60.00 Z
           M 233.66,51.00
           C 233.66,51.00 239.03,51.00 239.03,51.00
             242.51,51.00 244.20,50.38 244.11,49.12
             244.02,47.71 242.89,47.00 240.73,47.00
             237.74,47.00 235.38,48.34 233.66,51.00 Z
           M 271.80,47.00
           C 271.80,47.00 270.14,51.28 270.14,51.28
             268.64,55.09 266.69,57.00 264.28,57.00
             262.81,57.00 261.59,56.56 260.61,55.69
             259.64,54.80 259.16,53.71 259.16,52.41
             259.16,51.66 259.52,50.39 260.23,48.59
             260.23,48.59 265.75,34.94 265.75,34.94
             267.08,31.65 268.97,30.00 271.41,30.00
             273.81,30.00 275.29,31.20 275.84,33.58
             275.84,33.58 276.23,35.16 276.23,35.16
             276.43,35.98 276.72,36.50 277.11,36.70
             277.50,36.90 278.47,37.00 280.00,37.00
             280.00,37.00 291.42,37.00 291.42,37.00
             295.69,37.00 297.83,38.40 297.83,41.20
             297.83,45.07 295.12,47.00 289.72,47.00
             289.72,47.00 289.19,47.48 289.19,47.48
             284.01,52.43 281.42,56.26 281.42,58.95
             281.42,61.65 282.91,63.00 285.91,63.00
             285.91,63.00 292.06,63.00 292.06,63.00
             296.20,63.00 298.27,64.48 298.27,67.44
             298.27,69.52 297.54,71.14 296.09,72.28
             294.64,73.43 292.62,74.00 290.02,74.00
             290.02,74.00 280.44,74.00 280.44,74.00
             277.19,74.00 274.52,72.87 272.45,70.59
             270.39,68.31 269.36,65.36 269.36,61.73
             269.36,59.43 269.91,57.20 271.02,55.02
             272.12,52.84 274.07,50.17 276.88,47.00
             276.88,47.00 271.80,47.00 271.80,47.00 Z" />
  <path id="RANDOM GAME SEARCH"
        fill="#96d36e" stroke="#beed9e" filter="url(#shadowBlur)" stroke-width="1.6"
        d="M 69.05,100.17
           C 69.05,100.17 69.05,88.00 69.05,88.00
             69.05,88.00 74.84,88.00 74.84,88.00
             75.51,88.00 76.08,88.25 76.56,88.75
             77.05,89.24 77.30,89.83 77.30,90.52
             77.30,90.52 77.30,91.48 77.30,91.48
             77.30,92.17 77.05,92.77 76.58,93.27
             76.10,93.76 75.52,94.00 74.84,94.00
             74.84,94.00 73.80,94.00 73.80,94.00
             73.80,94.00 77.16,99.69 77.16,99.69
             77.26,99.86 77.31,100.02 77.31,100.19
             77.31,100.41 77.23,100.60 77.06,100.77
             76.89,100.92 76.70,101.00 76.48,101.00
             76.16,101.03 75.91,100.90 75.75,100.61
             75.75,100.61 71.89,94.00 71.89,94.00
             71.89,94.00 70.70,94.00 70.70,94.00
             70.70,94.00 70.70,100.19 70.70,100.19
             70.70,100.42 70.62,100.61 70.45,100.77
             70.29,100.92 70.09,101.00 69.86,101.00
             69.64,101.00 69.45,100.92 69.28,100.77
             69.12,100.60 69.05,100.40 69.05,100.17 Z
           M 70.69,92.00
           C 70.69,92.00 74.84,92.00 74.84,92.00
             75.06,92.00 75.25,91.94 75.41,91.81
             75.57,91.69 75.66,91.54 75.66,91.38
             75.66,91.38 75.66,90.62 75.66,90.62
             75.66,90.46 75.57,90.31 75.41,90.19
             75.25,90.06 75.06,90.00 74.84,90.00
             74.84,90.00 70.69,90.00 70.69,90.00
             70.69,90.00 70.69,92.00 70.69,92.00 Z
           M 81.06,99.84
           C 81.06,99.84 84.39,88.50 84.39,88.50
             84.52,88.17 84.79,88.00 85.20,88.00
             85.61,88.00 85.86,88.13 85.97,88.39
             85.97,88.39 89.23,99.92 89.23,99.92
             89.27,100.01 89.28,100.09 89.28,100.17
             89.28,100.40 89.20,100.60 89.05,100.77
             88.89,100.92 88.71,101.00 88.52,101.00
             88.08,101.00 87.80,100.84 87.69,100.50
             87.69,100.50 87.03,99.00 87.03,99.00
             87.03,99.00 83.28,99.00 83.28,99.00
             83.28,99.00 82.56,100.66 82.56,100.66
             82.54,100.74 82.46,100.82 82.31,100.89
             82.18,100.96 82.02,101.00 81.84,101.00
             81.60,101.00 81.41,100.92 81.25,100.77
             81.09,100.60 81.02,100.40 81.02,100.16
             81.02,100.06 81.03,99.96 81.06,99.84 Z
           M 85.19,90.00
           C 85.19,90.00 83.78,97.00 83.78,97.00
             83.78,97.00 86.55,97.00 86.55,97.00
             86.55,97.00 85.19,90.00 85.19,90.00 Z
           M 101.28,88.84
           C 101.28,88.84 101.28,101.00 101.28,101.00
             101.28,101.00 99.08,101.00 99.08,101.00
             99.08,101.00 94.66,91.00 94.66,91.00
             94.66,91.00 94.66,100.19 94.66,100.19
             94.66,100.42 94.57,100.61 94.41,100.77
             94.25,100.92 94.06,101.00 93.84,101.00
             93.61,101.00 93.41,100.92 93.25,100.77
             93.09,100.60 93.02,100.40 93.02,100.17
             93.02,100.17 93.02,88.00 93.02,88.00
             93.02,88.00 95.20,88.00 95.20,88.00
             95.20,88.00 99.62,98.00 99.62,98.00
             99.62,98.00 99.62,88.83 99.62,88.83
             99.62,88.61 99.71,88.42 99.88,88.25
             100.04,88.09 100.24,88.00 100.47,88.00
             100.69,88.00 100.88,88.09 101.03,88.25
             101.20,88.41 101.28,88.61 101.28,88.84 Z
           M 105.83,88.00
           C 105.83,88.00 109.06,88.00 109.06,88.00
             109.49,88.01 109.90,88.18 110.30,88.50
             110.70,88.81 111.00,89.15 111.19,89.52
             111.19,89.52 112.81,92.70 112.81,92.70
             113.11,93.28 113.27,93.88 113.27,94.50
             113.27,95.09 113.10,95.70 112.78,96.31
             112.78,96.31 111.14,99.48 111.14,99.48
             110.93,99.89 110.63,100.25 110.23,100.55
             109.85,100.85 109.41,101.00 108.94,101.00
             108.94,101.00 105.80,101.00 105.80,101.00
             105.58,101.00 105.38,100.90 105.22,100.70
             105.06,100.51 104.98,100.28 104.98,100.02
             104.98,99.73 105.06,99.50 105.22,99.30
             105.38,99.10 105.57,99.00 105.80,99.00
             105.80,99.00 106.66,99.00 106.66,99.00
             106.66,99.00 106.66,90.00 106.66,90.00
             106.66,90.00 105.81,90.00 105.81,90.00
             105.59,90.00 105.40,89.90 105.23,89.70
             105.08,89.51 105.00,89.27 105.00,88.98
             105.00,88.73 105.08,88.50 105.23,88.30
             105.40,88.10 105.60,88.00 105.83,88.00 Z
           M 108.30,90.00
           C 108.30,90.00 108.30,99.00 108.30,99.00
             108.30,99.00 108.88,99.00 108.88,99.00
             109.24,99.00 109.52,98.84 109.70,98.50
             109.70,98.50 111.33,95.53 111.33,95.53
             111.52,95.14 111.62,94.81 111.62,94.55
             111.62,94.23 111.54,93.91 111.38,93.61
             111.38,93.61 109.70,90.42 109.70,90.42
             109.52,90.11 109.24,89.95 108.84,89.95
             108.84,89.95 108.30,90.00 108.30,90.00 Z
           M 123.09,89.20
           C 123.09,89.20 124.91,92.89 124.91,92.89
             125.16,93.39 125.28,93.94 125.28,94.53
             125.28,95.11 125.16,95.64 124.91,96.14
             124.91,96.14 123.09,99.80 123.09,99.80
             122.71,100.60 122.05,101.00 121.14,101.00
             120.70,101.00 120.30,100.89 119.95,100.66
             119.61,100.43 119.35,100.14 119.17,99.80
             119.17,99.80 117.36,96.14 117.36,96.14
             117.12,95.67 117.00,95.14 117.00,94.53
             117.00,93.92 117.12,93.37 117.36,92.89
             117.36,92.89 119.17,89.20 119.17,89.20
             119.59,88.40 120.24,88.00 121.14,88.00
             122.05,88.00 122.71,88.40 123.09,89.20 Z
           M 120.59,90.06
           C 120.59,90.06 118.89,93.50 118.89,93.50
             118.73,93.84 118.66,94.18 118.66,94.50
             118.66,94.86 118.73,95.20 118.89,95.52
             118.89,95.52 120.64,99.00 120.64,99.00
             120.73,99.21 120.90,99.31 121.14,99.31
             121.35,99.31 121.51,99.21 121.62,99.00
             121.62,99.00 123.38,95.52 123.38,95.52
             123.54,95.18 123.62,94.84 123.62,94.50
             123.62,94.15 123.54,93.81 123.38,93.50
             123.38,93.50 121.66,90.06 121.66,90.06
             121.55,89.81 121.38,89.69 121.14,89.69
             120.90,89.69 120.72,89.81 120.59,90.06 Z
           M 132.33,93.17
           C 132.33,93.17 132.33,92.75 132.33,92.75
             132.33,92.75 130.62,90.00 130.62,90.00
             130.62,90.00 130.62,100.16 130.62,100.16
             130.62,100.40 130.54,100.60 130.38,100.77
             130.22,100.92 130.03,101.00 129.81,101.00
             129.58,101.00 129.38,100.92 129.22,100.77
             129.06,100.60 128.98,100.40 128.98,100.17
             128.98,100.17 128.98,88.00 128.98,88.00
             128.98,88.00 131.11,88.00 131.11,88.00
             131.11,88.00 133.12,90.83 133.12,90.83
             133.12,90.83 135.20,88.00 135.20,88.00
             135.20,88.00 137.28,88.00 137.28,88.00
             137.28,88.00 137.28,100.17 137.28,100.17
             137.28,100.40 137.20,100.60 137.03,100.77
             136.86,100.92 136.66,101.00 136.44,101.00
             136.22,101.00 136.02,100.92 135.86,100.75
             135.70,100.59 135.62,100.39 135.62,100.16
             135.62,100.16 135.62,90.00 135.62,90.00
             135.62,90.00 133.97,92.72 133.97,92.72
             133.97,92.72 133.97,93.17 133.97,93.17
             133.97,93.40 133.88,93.60 133.72,93.77
             133.56,93.92 133.38,94.00 133.16,94.00
             132.93,94.00 132.73,93.92 132.56,93.77
             132.41,93.60 132.33,93.40 132.33,93.17 Z
           M 157.78,88.00
           C 157.78,88.00 160.52,88.00 160.52,88.00
             160.73,88.00 160.92,88.10 161.08,88.30
             161.24,88.48 161.33,88.71 161.33,88.98
             161.33,89.28 161.24,89.52 161.06,89.72
             160.89,89.91 160.71,90.00 160.52,90.00
             160.52,90.00 157.91,90.00 157.91,90.00
             157.66,89.93 157.44,90.01 157.25,90.23
             157.25,90.23 154.94,93.03 154.94,93.03
             154.74,93.25 154.64,93.56 154.64,93.95
             154.64,93.95 154.64,98.22 154.64,98.22
             154.64,98.44 154.72,98.62 154.88,98.78
             155.04,98.93 155.24,99.00 155.47,99.00
             155.47,99.00 158.80,99.00 158.80,99.00
             159.02,99.00 159.22,98.94 159.38,98.81
             159.54,98.69 159.62,98.54 159.62,98.38
             159.62,98.38 159.62,97.00 159.62,97.00
             159.62,97.00 157.92,97.00 157.92,97.00
             157.69,97.00 157.50,96.91 157.34,96.72
             157.19,96.52 157.11,96.28 157.11,96.00
             157.11,95.72 157.19,95.48 157.34,95.30
             157.50,95.10 157.69,95.00 157.92,95.00
             157.92,95.00 161.27,95.00 161.27,95.00
             161.27,95.00 161.27,98.48 161.27,98.48
             161.27,99.18 161.02,99.78 160.55,100.27
             160.07,100.76 159.49,101.00 158.81,101.00
             158.81,101.00 155.47,101.00 155.47,101.00
             154.78,101.00 154.19,100.76 153.70,100.28
             153.22,99.80 152.98,99.23 152.98,98.56
             152.98,98.56 152.98,94.05 152.98,94.05
             152.98,93.25 153.20,92.56 153.64,92.00
             153.64,92.00 156.06,88.94 156.06,88.94
             156.24,88.71 156.48,88.50 156.80,88.30
             157.12,88.10 157.45,88.00 157.78,88.00 Z
           M 165.06,99.84
           C 165.06,99.84 168.39,88.50 168.39,88.50
             168.52,88.17 168.79,88.00 169.20,88.00
             169.61,88.00 169.86,88.13 169.97,88.39
             169.97,88.39 173.23,99.92 173.23,99.92
             173.27,100.01 173.28,100.09 173.28,100.17
             173.28,100.40 173.20,100.60 173.05,100.77
             172.89,100.92 172.71,101.00 172.52,101.00
             172.08,101.00 171.80,100.84 171.69,100.50
             171.69,100.50 171.03,99.00 171.03,99.00
             171.03,99.00 167.28,99.00 167.28,99.00
             167.28,99.00 166.56,100.66 166.56,100.66
             166.54,100.74 166.46,100.82 166.31,100.89
             166.18,100.96 166.02,101.00 165.84,101.00
             165.60,101.00 165.41,100.92 165.25,100.77
             165.09,100.60 165.02,100.40 165.02,100.16
             165.02,100.06 165.03,99.96 165.06,99.84 Z
           M 169.19,90.00
           C 169.19,90.00 167.78,97.00 167.78,97.00
             167.78,97.00 170.55,97.00 170.55,97.00
             170.55,97.00 169.19,90.00 169.19,90.00 Z
           M 180.33,93.17
           C 180.33,93.17 180.33,92.75 180.33,92.75
             180.33,92.75 178.62,90.00 178.62,90.00
             178.62,90.00 178.62,100.16 178.62,100.16
             178.62,100.40 178.54,100.60 178.38,100.77
             178.22,100.92 178.03,101.00 177.81,101.00
             177.58,101.00 177.38,100.92 177.22,100.77
             177.06,100.60 176.98,100.40 176.98,100.17
             176.98,100.17 176.98,88.00 176.98,88.00
             176.98,88.00 179.11,88.00 179.11,88.00
             179.11,88.00 181.12,90.83 181.12,90.83
             181.12,90.83 183.20,88.00 183.20,88.00
             183.20,88.00 185.28,88.00 185.28,88.00
             185.28,88.00 185.28,100.17 185.28,100.17
             185.28,100.40 185.20,100.60 185.03,100.77
             184.86,100.92 184.66,101.00 184.44,101.00
             184.22,101.00 184.02,100.92 183.86,100.75
             183.70,100.59 183.62,100.39 183.62,100.16
             183.62,100.16 183.62,90.00 183.62,90.00
             183.62,90.00 181.97,92.72 181.97,92.72
             181.97,92.72 181.97,93.17 181.97,93.17
             181.97,93.40 181.88,93.60 181.72,93.77
             181.56,93.92 181.38,94.00 181.16,94.00
             180.93,94.00 180.73,93.92 180.56,93.77
             180.41,93.60 180.33,93.40 180.33,93.17 Z
           M 196.45,90.00
           C 196.45,90.00 190.66,90.00 190.66,90.00
             190.66,90.00 190.66,94.00 190.66,94.00
             190.66,94.00 193.16,94.00 193.16,94.00
             193.38,94.00 193.58,94.10 193.73,94.30
             193.90,94.50 193.98,94.73 193.98,94.98
             193.98,95.27 193.90,95.51 193.73,95.70
             193.58,95.90 193.38,96.00 193.16,96.00
             193.16,96.00 190.66,96.00 190.66,96.00
             190.66,96.00 190.66,99.00 190.66,99.00
             190.66,99.00 196.48,99.00 196.48,99.00
             196.70,99.00 196.89,99.10 197.05,99.30
             197.21,99.48 197.30,99.72 197.30,100.00
             197.30,100.28 197.21,100.52 197.05,100.72
             196.88,100.91 196.68,101.00 196.45,101.00
             196.45,101.00 189.02,101.00 189.02,101.00
             189.02,101.00 189.02,88.00 189.02,88.00
             189.02,88.00 196.45,88.00 196.45,88.00
             196.68,88.00 196.88,88.10 197.05,88.30
             197.21,88.50 197.30,88.73 197.30,89.02
             197.30,89.28 197.21,89.51 197.05,89.70
             196.88,89.90 196.68,90.00 196.45,90.00 Z
           M 214.88,88.00
           C 214.88,88.00 219.16,88.00 219.16,88.00
             219.68,88.00 220.16,88.21 220.62,88.64
             221.09,89.07 221.33,89.59 221.33,90.19
             221.33,90.42 221.24,90.61 221.08,90.77
             220.91,90.92 220.73,91.00 220.53,91.00
             220.25,91.00 220.05,90.96 219.95,90.88
             219.85,90.78 219.75,90.62 219.66,90.38
             219.56,90.12 219.35,90.00 219.03,90.00
             219.03,90.00 214.97,90.00 214.97,90.00
             214.77,90.00 214.67,90.06 214.67,90.17
             214.67,90.25 214.71,90.33 214.80,90.42
             214.80,90.42 220.89,97.67 220.89,97.67
             221.18,98.03 221.33,98.45 221.33,98.92
             221.33,99.48 221.15,99.96 220.80,100.38
             220.44,100.79 220.05,101.00 219.61,101.00
             219.61,101.00 215.19,101.00 215.19,101.00
             214.59,101.00 214.08,100.78 213.64,100.34
             213.21,99.91 213.00,99.43 213.00,98.91
             213.00,98.30 213.29,98.00 213.86,98.00
             214.08,98.00 214.27,98.06 214.42,98.17
             214.58,98.29 214.66,98.42 214.66,98.56
             214.66,98.69 214.71,98.79 214.83,98.88
             214.95,98.96 215.11,99.00 215.30,99.00
             215.30,99.00 219.38,99.00 219.38,99.00
             219.55,99.00 219.64,98.93 219.64,98.78
             219.64,98.71 219.60,98.62 219.52,98.53
             219.52,98.53 213.44,91.31 213.44,91.31
             213.16,90.97 213.02,90.56 213.02,90.08
             213.02,89.52 213.20,89.03 213.56,88.62
             213.93,88.21 214.36,88.00 214.88,88.00 Z
           M 232.45,90.00
           C 232.45,90.00 226.66,90.00 226.66,90.00
             226.66,90.00 226.66,94.00 226.66,94.00
             226.66,94.00 229.16,94.00 229.16,94.00
             229.38,94.00 229.58,94.10 229.73,94.30
             229.90,94.50 229.98,94.73 229.98,94.98
             229.98,95.27 229.90,95.51 229.73,95.70
             229.58,95.90 229.38,96.00 229.16,96.00
             229.16,96.00 226.66,96.00 226.66,96.00
             226.66,96.00 226.66,99.00 226.66,99.00
             226.66,99.00 232.48,99.00 232.48,99.00
             232.70,99.00 232.89,99.10 233.05,99.30
             233.21,99.48 233.30,99.72 233.30,100.00
             233.30,100.28 233.21,100.52 233.05,100.72
             232.88,100.91 232.68,101.00 232.45,101.00
             232.45,101.00 225.02,101.00 225.02,101.00
             225.02,101.00 225.02,88.00 225.02,88.00
             225.02,88.00 232.45,88.00 232.45,88.00
             232.68,88.00 232.88,88.10 233.05,88.30
             233.21,88.50 233.30,88.73 233.30,89.02
             233.30,89.28 233.21,89.51 233.05,89.70
             232.88,89.90 232.68,90.00 232.45,90.00 Z
           M 237.06,99.84
           C 237.06,99.84 240.39,88.50 240.39,88.50
             240.52,88.17 240.79,88.00 241.20,88.00
             241.61,88.00 241.86,88.13 241.97,88.39
             241.97,88.39 245.23,99.92 245.23,99.92
             245.27,100.01 245.28,100.09 245.28,100.17
             245.28,100.40 245.20,100.60 245.05,100.77
             244.89,100.92 244.71,101.00 244.52,101.00
             244.08,101.00 243.80,100.84 243.69,100.50
             243.69,100.50 243.03,99.00 243.03,99.00
             243.03,99.00 239.28,99.00 239.28,99.00
             239.28,99.00 238.56,100.66 238.56,100.66
             238.54,100.74 238.46,100.82 238.31,100.89
             238.18,100.96 238.02,101.00 237.84,101.00
             237.60,101.00 237.41,100.92 237.25,100.77
             237.09,100.60 237.02,100.40 237.02,100.16
             237.02,100.06 237.03,99.96 237.06,99.84 Z
           M 241.19,90.00
           C 241.19,90.00 239.78,97.00 239.78,97.00
             239.78,97.00 242.55,97.00 242.55,97.00
             242.55,97.00 241.19,90.00 241.19,90.00 Z
           M 249.05,100.17
           C 249.05,100.17 249.05,88.00 249.05,88.00
             249.05,88.00 254.84,88.00 254.84,88.00
             255.51,88.00 256.08,88.25 256.56,88.75
             257.05,89.24 257.30,89.83 257.30,90.52
             257.30,90.52 257.30,91.48 257.30,91.48
             257.30,92.17 257.05,92.77 256.58,93.27
             256.10,93.76 255.52,94.00 254.84,94.00
             254.84,94.00 253.80,94.00 253.80,94.00
             253.80,94.00 257.16,99.69 257.16,99.69
             257.26,99.86 257.31,100.02 257.31,100.19
             257.31,100.41 257.23,100.60 257.06,100.77
             256.89,100.92 256.70,101.00 256.48,101.00
             256.16,101.03 255.91,100.90 255.75,100.61
             255.75,100.61 251.89,94.00 251.89,94.00
             251.89,94.00 250.70,94.00 250.70,94.00
             250.70,94.00 250.70,100.19 250.70,100.19
             250.70,100.42 250.62,100.61 250.45,100.77
             250.29,100.92 250.09,101.00 249.86,101.00
             249.64,101.00 249.45,100.92 249.28,100.77
             249.12,100.60 249.05,100.40 249.05,100.17 Z
           M 250.69,92.00
           C 250.69,92.00 254.84,92.00 254.84,92.00
             255.06,92.00 255.25,91.94 255.41,91.81
             255.57,91.69 255.66,91.54 255.66,91.38
             255.66,91.38 255.66,90.62 255.66,90.62
             255.66,90.46 255.57,90.31 255.41,90.19
             255.25,90.06 255.06,90.00 254.84,90.00
             254.84,90.00 250.69,90.00 250.69,90.00
             250.69,90.00 250.69,92.00 250.69,92.00 Z
           M 265.53,99.00
           C 265.53,99.00 268.48,99.00 268.48,99.00
             268.71,99.00 268.91,99.10 269.08,99.30
             269.24,99.48 269.33,99.72 269.33,100.00
             269.33,100.28 269.24,100.52 269.08,100.72
             268.91,100.91 268.71,101.00 268.48,101.00
             268.48,101.00 265.42,101.00 265.42,101.00
             265.02,101.00 264.62,100.85 264.20,100.55
             263.79,100.25 263.49,99.95 263.33,99.64
             263.33,99.64 261.44,96.08 261.44,96.08
             261.19,95.56 261.06,95.03 261.06,94.48
             261.06,93.89 261.18,93.38 261.42,92.94
             261.42,92.94 263.34,89.42 263.34,89.42
             263.52,89.10 263.80,88.78 264.19,88.47
             264.57,88.16 264.94,88.00 265.30,88.00
             265.30,88.00 268.55,88.00 268.55,88.00
             268.77,88.00 268.95,88.10 269.11,88.30
             269.27,88.50 269.36,88.73 269.36,88.98
             269.36,89.27 269.27,89.51 269.11,89.70
             268.95,89.90 268.77,90.00 268.55,90.00
             268.55,90.00 265.42,90.00 265.42,90.00
             265.16,89.98 264.95,90.12 264.78,90.41
             264.78,90.41 262.97,93.62 262.97,93.62
             262.82,93.88 262.75,94.16 262.75,94.48
             262.75,94.83 262.83,95.14 262.98,95.41
             262.98,95.41 264.72,98.48 264.72,98.48
             264.88,98.81 265.16,98.98 265.53,99.00 Z
           M 272.98,100.17
           C 272.98,100.17 272.98,88.83 272.98,88.83
             272.98,88.60 273.06,88.41 273.22,88.25
             273.38,88.09 273.58,88.00 273.81,88.00
             274.03,88.00 274.22,88.09 274.38,88.27
             274.54,88.43 274.62,88.64 274.62,88.88
             274.62,88.88 274.62,94.00 274.62,94.00
             274.62,94.00 279.62,94.00 279.62,94.00
             279.62,94.00 279.62,88.88 279.62,88.88
             279.62,88.64 279.70,88.43 279.86,88.27
             280.02,88.09 280.22,88.00 280.45,88.00
             280.67,88.00 280.86,88.09 281.02,88.25
             281.18,88.41 281.27,88.61 281.27,88.84
             281.27,88.84 281.27,100.17 281.27,100.17
             281.27,100.40 281.18,100.60 281.02,100.77
             280.85,100.92 280.66,101.00 280.45,101.00
             280.21,101.00 280.02,100.93 279.86,100.80
             279.70,100.65 279.62,100.48 279.62,100.28
             279.62,100.28 279.62,96.00 279.62,96.00
             279.62,96.00 274.64,96.00 274.64,96.00
             274.64,96.00 274.64,100.28 274.64,100.28
             274.64,100.48 274.55,100.65 274.39,100.80
             274.22,100.93 274.02,101.00 273.80,101.00
             273.58,101.00 273.38,100.92 273.22,100.77
             273.06,100.60 272.98,100.40 272.98,100.17 Z" />
</svg>
